<?xml version="1.0" encoding="utf-8"?>
<!-- Generator: Adobe Illustrator 25.2.0, SVG Export Plug-In . SVG Version: 6.00 Build 0)  -->
<svg version="1.1" id="Layer_1" xmlns="http://www.w3.org/2000/svg" xmlns:xlink="http://www.w3.org/1999/xlink" x="0px" y="0px"
	 viewBox="0 0 200 200" style="enable-background:new 0 0 200 200;" xml:space="preserve">
<style type="text/css">
	.st0{clip-path:url(#SVGID_2_);fill:#FFF200;}
	.st1{clip-path:url(#SVGID_2_);fill:#009444;}
	.st2{clip-path:url(#SVGID_2_);fill:#ED1C24;}
	.st3{clip-path:url(#SVGID_2_);}
	.st4{clip-path:url(#SVGID_4_);fill:#FFF200;}
	.st5{clip-path:url(#SVGID_4_);fill:#009444;}
	.st6{clip-path:url(#SVGID_2_);fill:#BCBEC0;}
	.st7{clip-path:url(#SVGID_2_);fill:#231F20;}
	.st8{clip-path:url(#SVGID_6_);fill:#ED1C24;}
	.st9{clip-path:url(#SVGID_6_);fill:#BCBEC0;}
	.st10{clip-path:url(#SVGID_6_);fill:#231F20;}
	.st11{clip-path:url(#SVGID_8_);fill:#FFF200;}
	.st12{clip-path:url(#SVGID_8_);fill:#ED1C24;}
	.st13{clip-path:url(#SVGID_10_);fill:#FFF200;}
	.st14{clip-path:url(#SVGID_10_);fill:#009444;}
	.st15{clip-path:url(#SVGID_10_);fill:#ED1C24;}
	.st16{clip-path:url(#SVGID_10_);fill:#231F20;}
	.st17{clip-path:url(#SVGID_10_);fill:none;stroke:#ED1C24;stroke-width:4;stroke-miterlimit:10;}
	.st18{clip-path:url(#SVGID_10_);fill:#BCBEC0;}
</style>
<g>
	<g>
		<defs>
			<rect id="SVGID_1_" width="200" height="200"/>
		</defs>
		<clipPath id="SVGID_2_">
			<use xlink:href="#SVGID_1_"  style="overflow:visible;"/>
		</clipPath>
		<rect x="66.7" y="133.3" class="st0" width="66.7" height="66.7"/>
		<rect y="66.7" class="st1" width="66.7" height="66.7"/>
		<rect y="0" class="st2" width="66.7" height="66.7"/>
		<g class="st3">
			<defs>
				<rect id="SVGID_3_" y="0" width="66.7" height="66.7"/>
			</defs>
			<clipPath id="SVGID_4_">
				<use xlink:href="#SVGID_3_"  style="overflow:visible;"/>
			</clipPath>
			<path class="st4" d="M78.4,48.1c0,17.5-14.2,31.7-31.7,31.7S15,65.5,15,48.1s14.2-31.7,31.7-31.7S78.4,30.6,78.4,48.1"/>
			<path class="st5" d="M32.5,33.9H0.2c-7.1,0-12.9-5.8-12.9-12.9c0-7.1,5.8-12.9,12.9-12.9h32.3c7.1,0,12.9,5.8,12.9,12.9
				C45.4,28.1,39.6,33.9,32.5,33.9"/>
		</g>
		<rect x="66.7" y="0" class="st6" width="66.7" height="66.7"/>
		<rect x="133.3" y="66.7" class="st0" width="66.7" height="66.7"/>
		<rect x="113.6" y="133.3" class="st7" width="12.4" height="40.3"/>
		<g class="st3">
			<defs>
				<rect id="SVGID_5_" x="66.7" y="133.3" width="66.7" height="66.7"/>
			</defs>
			<clipPath id="SVGID_6_">
				<use xlink:href="#SVGID_5_"  style="overflow:visible;"/>
			</clipPath>
			<path class="st8" d="M135.9,177.5c0,9-7.3,16.3-16.3,16.3s-16.3-7.3-16.3-16.3s7.3-16.3,16.3-16.3S135.9,168.5,135.9,177.5"/>
			<polygon class="st9" points="99.5,161 122,200 76.9,200 			"/>
			<path class="st10" d="M95.2,156.4H64.6c-3,0-5.5-2.5-5.5-5.5c0-3,2.5-5.5,5.5-5.5h30.6c3,0,5.5,2.5,5.5,5.5
				C100.7,153.9,98.2,156.4,95.2,156.4"/>
		</g>
		<rect x="66.7" y="66.7" class="st7" width="66.7" height="66.7"/>
		<rect y="133.3" class="st7" width="66.7" height="66.7"/>
		<rect x="8.2" y="76" class="st6" width="50" height="50"/>
		<g class="st3">
			<defs>
				<rect id="SVGID_7_" y="66.7" width="66.7" height="66.7"/>
			</defs>
			<clipPath id="SVGID_8_">
				<use xlink:href="#SVGID_7_"  style="overflow:visible;"/>
			</clipPath>
			<path class="st11" d="M30.8,97.1L30.8,97.1V51.7h23v22.3C53.9,86.8,43.6,97.1,30.8,97.1"/>
			<path class="st12" d="M25,122.5H-6.3v-15.5h46.7v0C40.5,115.6,33.5,122.5,25,122.5"/>
		</g>
		<g class="st3">
			<defs>
				<rect id="SVGID_9_" width="200" height="200"/>
			</defs>
			<clipPath id="SVGID_10_">
				<use xlink:href="#SVGID_9_"  style="overflow:visible;"/>
			</clipPath>
			<path class="st13" d="M66.6,33.3V0C85,0,99.9,14.9,99.9,33.3H66.6z"/>
			<path class="st14" d="M133.3,33v33.3c-18.4,0-33.3-14.9-33.3-33.3H133.3z"/>
			<path class="st15" d="M99.9,0v33.3c18.4,0,33.3-14.9,33.3-33.3H99.9z"/>
			<path class="st16" d="M100.4,66.6V33.3C81.9,33.3,67,48.2,67,66.6H100.4z"/>
			<rect x="133.3" class="st14" width="66.7" height="66.7"/>
			<path class="st17" d="M139.9,32.8c0.1-5.6,14.6-10.8,26.8-10.6c12.4,0.2,26.9,6.1,26.8,11.7c-0.1,5.6-14.9,11-27.5,10.6
				C153.9,44.1,139.8,38.3,139.9,32.8z"/>
			<path class="st18" d="M165.7,60.1c-5.6-0.1-10.8-14.6-10.6-26.8c0.2-12.4,6.1-26.9,11.7-26.8c5.6,0.1,11,14.9,10.6,27.5
				C177.1,46.1,171.3,60.2,165.7,60.1"/>
			<path class="st13" d="M100,100l9.9,25.9c-0.8,4.5-5.4,7.7-10.4,7.5c-4.6-0.2-8.6-3.3-9.4-7.5C93.4,117.2,96.7,108.6,100,100"/>
			<path class="st14" d="M100,100l-25.9,9.9c-4.5-0.8-7.7-5.4-7.5-10.4c0.2-4.6,3.3-8.6,7.5-9.4C82.8,93.4,91.4,96.7,100,100"/>
			<path class="st18" d="M100,100l25.9-9.9c4.5,0.8,7.7,5.4,7.5,10.4c-0.2,4.6-3.3,8.6-7.5,9.4C117.2,106.6,108.6,103.3,100,100"/>
			<path class="st15" d="M100,100l-9.9-25.9c0.8-4.5,5.4-7.7,10.4-7.5c4.6,0.2,8.6,3.3,9.4,7.5C106.6,82.8,103.3,91.4,100,100"/>
			<polygon class="st14" points="200,63.5 166.9,98.8 166.9,63.4 			"/>
			<polygon class="st16" points="166.2,98.4 133.2,116.1 133.2,80.7 			"/>
			<polygon class="st15" points="199.8,133.1 166.9,133.3 166.9,98 			"/>
			<polygon class="st15" points="50,175 0.5,199.8 16.7,158.3 66.2,133.5 			"/>
			<rect y="133.3" class="st14" width="33.3" height="16.7"/>
			<rect x="33.7" y="183.3" class="st13" width="33.3" height="16.7"/>
			<rect x="133.3" y="133.3" class="st15" width="66.7" height="66.7"/>
			<path class="st14" d="M166.7,158.3c18.4,0,33.3,3.7,33.3,8.3c0,4.6-14.9,8.3-33.3,8.3c-18.4,0-33.3-3.7-33.3-8.3
				C133.3,162.1,148.3,158.3,166.7,158.3"/>
			<path class="st13" d="M172.6,160.8c13,13,20.9,26.2,17.7,29.5c-3.3,3.3-16.4-4.7-29.5-17.7c-13-13-20.9-26.2-17.7-29.5
				C146.4,139.8,159.5,147.8,172.6,160.8"/>
			<path class="st18" d="M172.6,172.6c-13,13-26.2,20.9-29.5,17.7c-3.3-3.3,4.7-16.4,17.7-29.5c13-13,26.2-20.9,29.5-17.7
				C193.5,146.4,185.6,159.5,172.6,172.6"/>
		</g>
	</g>
</g>
</svg>
